# xmcd
#
# Track frame offsets: 
#        150
#        16852
#        31505
#        47532
#        65317
#        79437
#        94935
#        111302
#        130982
#        143127
#        159250
#        174375
#        191420
#        204995
#
# Disc length: 3057 seconds
#
# Revision: 0
# Processed by: cddbd v1.5.2PL0 Copyright (c) Steve Scherf et al.
# Submitted via: ExactAudioCopy v0.95b4
#
DISCID=ae0bef0e
DTITLE=Ingela Söderlund - Ett Blankt Papper
DYEAR=2001
DGENRE=Country
TTITLE0=Ett Blankt Papper
TTITLE1=Kärlek Rostar Aldrig
TTITLE2=Wild Louis
TTITLE3=Morgonstad
TTITLE4=Let's Do Something We Regret
TTITLE5=Det Finns Så Mycket Fint
TTITLE6=Som Bara Älskade Kan
TTITLE7=Then Comes The Night
TTITLE8=Vild Och Galen
TTITLE9=Tills Hela Havet Sinat Ut
TTITLE10=Don't Let The Loneliness Grow
TTITLE11=Dags Att Gå Nu
TTITLE12=Bumble-Bee
TTITLE13=What Would I Do Without Your Love
EXTD=
EXTT0=
EXTT1=
EXTT2=
EXTT3=
EXTT4=
EXTT5=
EXTT6=
EXTT7=
EXTT8=
EXTT9=
EXTT10=
EXTT11=
EXTT12=
EXTT13=
PLAYORDER=
